<svg width="512" height="512" viewBox="0 0 512 512" fill="none" xmlns="http://www.w3.org/2000/svg" xmlns:xlink="http://www.w3.org/1999/xlink" class=""><rect id="r9" width="512" height="512" x="0" y="0" rx="128" fill="url(#ra)" stroke="#FFFFFF" stroke-width="0" stroke-opacity="100%" paint-order="stroke"></rect><clipPath id="clip"><use xlink:href="#r9"></use></clipPath><defs><radialGradient id="ra" cx="50%" cy="50%" r="100%" fx="50%" fy="0%" gradientUnits="objectBoundingBox"><stop stop-color="#222222"></stop><stop offset="1" stop-color="#000000"></stop></radialGradient><radialGradient id="rb" cx="0" cy="0" r="1" gradientUnits="userSpaceOnUse" gradientTransform="translate(256) rotate(90) scale(512)"><stop stop-color="white"></stop><stop offset="1" stop-color="white" stop-opacity="0"></stop></radialGradient></defs><svg xmlns="http://www.w3.org/2000/svg" width="360" height="360" fill="#f7f7f7" viewBox="0 0 256 256" x="76" y="76" alignment-baseline="middle" style="color: rgb(230, 230, 230);"><path d="M223.05,69.33A6,6,0,0,1,215,66.76,96,96,0,0,0,180.8,29.08a6,6,0,0,1,6.4-10.15,109.26,109.26,0,0,1,38.41,42.31A6,6,0,0,1,223.05,69.33ZM41,66.76A96,96,0,0,1,75.2,29.08a6,6,0,0,0-6.4-10.15A109.26,109.26,0,0,0,30.39,61.24,6,6,0,1,0,41,66.76Zm179,110.18A14,14,0,0,1,208,198h-42.5a38,38,0,0,1-75,0H48a14,14,0,0,1-12.06-21.06C45.13,161.09,50,138.63,50,112a78,78,0,0,1,156,0C206,139,210.74,160.86,220.08,176.94ZM153.29,198H102.71a26,26,0,0,0,50.58,0Zm56.42-15C199.29,165,194,141.15,194,112a66,66,0,0,0-132,0c0,29.16-5.29,53-15.71,71a2,2,0,0,0,0,2,1.9,1.9,0,0,0,1.7,1H208a1.9,1.9,0,0,0,1.7-1A2,2,0,0,0,209.71,183Z"></path></svg></svg>